<?xml version="1.0" standalone="no"?>
<!DOCTYPE svg PUBLIC "-//W3C//DTD SVG 20010904//EN"
 "http://www.w3.org/TR/2001/REC-SVG-20010904/DTD/svg10.dtd">
<svg version="1.0" xmlns="http://www.w3.org/2000/svg"
 width="72.000000pt" height="72.000000pt" viewBox="0 0 72.000000 72.000000"
 preserveAspectRatio="xMidYMid meet">

<g transform="translate(0.000000,72.000000) scale(0.100000,-0.100000)"
fill="#000000" stroke="none">
<path d="M356 711 c-4 -7 -5 -15 -2 -18 9 -9 19 4 14 18 -4 11 -6 11 -12 0z"/>
<path d="M385 701 c-6 -11 9 -23 19 -14 9 9 7 23 -3 23 -6 0 -12 -4 -16 -9z"/>
<path d="M320 690 c0 -5 5 -10 10 -10 6 0 10 5 10 10 0 6 -4 10 -10 10 -5 0
-10 -4 -10 -10z"/>
<path d="M286 682 c-3 -6 -1 -14 5 -17 15 -10 25 3 12 16 -7 7 -13 7 -17 1z"/>
<path d="M415 680 c-3 -5 0 -10 9 -10 8 0 16 -6 19 -12 2 -7 8 -10 12 -6 4 4
0 14 -8 23 -18 18 -24 19 -32 5z"/>
<path d="M251 644 c-18 -21 -6 -30 14 -11 8 9 15 18 15 21 0 11 -15 5 -29 -10z"/>
<path d="M460 630 c0 -5 4 -10 9 -10 6 0 13 5 16 10 3 6 -1 10 -9 10 -9 0 -16
-4 -16 -10z"/>
<path d="M220 606 c0 -9 5 -16 10 -16 6 0 10 4 10 9 0 6 -4 13 -10 16 -5 3
-10 -1 -10 -9z"/>
<path d="M485 609 c-10 -15 3 -25 16 -12 7 7 7 13 1 17 -6 3 -14 1 -17 -5z"/>
<path d="M203 576 c3 -8 1 -17 -6 -19 -7 -2 -9 -8 -4 -12 8 -10 38 26 31 37
-9 14 -26 8 -21 -6z"/>
<path d="M500 575 c0 -8 4 -15 10 -15 5 0 7 -7 4 -15 -4 -8 -1 -15 5 -15 6 0
8 -7 5 -15 -4 -8 -2 -15 3 -15 19 0 21 12 7 38 -8 15 -14 33 -14 40 0 6 -4 12
-10 12 -5 0 -10 -7 -10 -15z"/>
<path d="M332 568 c2 -6 15 -13 28 -15 13 -2 28 -9 32 -16 6 -9 10 -9 20 1 9
9 9 12 -5 12 -9 0 -17 5 -17 11 0 6 -7 9 -15 6 -8 -4 -17 -2 -20 3 -9 14 -27
12 -23 -2z"/>
<path d="M302 561 c2 -7 7 -12 11 -12 12 1 9 15 -3 20 -7 2 -11 -2 -8 -8z"/>
<path d="M280 536 c0 -8 -6 -16 -12 -19 -7 -2 -10 -8 -6 -12 8 -9 38 18 38 34
0 6 -4 11 -10 11 -5 0 -10 -6 -10 -14z"/>
<path d="M176 522 c-3 -6 -1 -14 5 -17 15 -10 25 3 12 16 -7 7 -13 7 -17 1z"/>
<path d="M416 521 c-4 -5 -2 -12 3 -15 5 -4 12 -2 15 3 4 5 2 12 -3 15 -5 4
-12 2 -15 -3z"/>
<path d="M435 489 c-10 -15 3 -25 16 -12 7 7 7 13 1 17 -6 3 -14 1 -17 -5z"/>
<path d="M160 480 c0 -5 7 -10 15 -10 8 0 15 5 15 10 0 6 -7 10 -15 10 -8 0
-15 -4 -15 -10z"/>
<path d="M250 480 c0 -5 5 -10 10 -10 6 0 10 5 10 10 0 6 -4 10 -10 10 -5 0
-10 -4 -10 -10z"/>
<path d="M530 480 c0 -5 5 -10 10 -10 6 0 10 5 10 10 0 6 -4 10 -10 10 -5 0
-10 -4 -10 -10z"/>
<path d="M150 450 c0 -5 7 -10 15 -10 8 0 15 5 15 10 0 6 -7 10 -15 10 -8 0
-15 -4 -15 -10z"/>
<path d="M240 450 c0 -5 5 -10 10 -10 6 0 10 5 10 10 0 6 -4 10 -10 10 -5 0
-10 -4 -10 -10z"/>
<path d="M440 450 c0 -5 4 -10 9 -10 6 0 13 5 16 10 3 6 -1 10 -9 10 -9 0 -16
-4 -16 -10z"/>
<path d="M530 450 c0 -5 7 -10 15 -10 8 0 15 5 15 10 0 6 -7 10 -15 10 -8 0
-15 -4 -15 -10z"/>
<path d="M150 415 c0 -8 5 -15 10 -15 6 0 10 7 10 15 0 8 -4 15 -10 15 -5 0
-10 -7 -10 -15z"/>
<path d="M236 421 c-4 -5 -2 -12 3 -15 5 -4 12 -2 15 3 4 5 2 12 -3 15 -5 4
-12 2 -15 -3z"/>
<path d="M450 420 c0 -5 5 -10 10 -10 6 0 10 5 10 10 0 6 -4 10 -10 10 -5 0
-10 -4 -10 -10z"/>
<path d="M539 425 c-5 -23 -2 -49 7 -52 6 -2 11 10 11 27 0 16 -4 30 -9 30 -4
0 -8 -2 -9 -5z"/>
<path d="M496 391 c-4 -5 -2 -12 3 -15 5 -4 12 -2 15 3 4 5 2 12 -3 15 -5 4
-12 2 -15 -3z"/>
<path d="M150 380 c0 -5 5 -10 10 -10 6 0 10 5 10 10 0 6 -4 10 -10 10 -5 0
-10 -4 -10 -10z"/>
<path d="M190 380 c0 -5 5 -10 10 -10 6 0 10 5 10 10 0 6 -4 10 -10 10 -5 0
-10 -4 -10 -10z"/>
<path d="M230 380 c0 -5 4 -10 9 -10 6 0 13 5 16 10 3 6 -1 10 -9 10 -9 0 -16
-4 -16 -10z"/>
<path d="M270 380 c0 -5 5 -10 10 -10 6 0 10 5 10 10 0 6 -4 10 -10 10 -5 0
-10 -4 -10 -10z"/>
<path d="M310 380 c0 -5 5 -10 10 -10 6 0 10 5 10 10 0 6 -4 10 -10 10 -5 0
-10 -4 -10 -10z"/>
<path d="M340 380 c0 -5 4 -10 9 -10 6 0 13 5 16 10 3 6 -1 10 -9 10 -9 0 -16
-4 -16 -10z"/>
<path d="M380 380 c0 -5 5 -10 10 -10 6 0 10 5 10 10 0 6 -4 10 -10 10 -5 0
-10 -4 -10 -10z"/>
<path d="M415 380 c3 -5 10 -10 16 -10 5 0 9 5 9 10 0 6 -7 10 -16 10 -8 0
-12 -4 -9 -10z"/>
<path d="M450 380 c0 -5 5 -10 10 -10 6 0 10 5 10 10 0 6 -4 10 -10 10 -5 0
-10 -4 -10 -10z"/>
<path d="M114 362 c-21 -13 -32 -47 -23 -69 11 -31 29 -29 29 3 0 14 5 34 10
44 11 20 1 33 -16 22z"/>
<path d="M575 353 c5 -10 10 -33 13 -51 5 -38 26 -38 30 1 4 33 -14 67 -34 67
-12 0 -14 -5 -9 -17z"/>
<path d="M155 339 c-10 -15 3 -56 20 -62 11 -5 13 0 8 23 -4 25 -1 31 18 39
23 9 22 10 -8 10 -17 1 -35 -4 -38 -10z"/>
<path d="M513 339 c20 -12 23 -45 5 -52 -7 -3 -3 -6 9 -6 32 -1 47 32 24 53
-9 9 -26 16 -37 16 -18 -1 -18 -1 -1 -11z"/>
<path d="M233 323 c-24 -9 -13 -23 18 -23 20 0 29 4 27 13 -5 13 -26 18 -45
10z"/>
<path d="M432 323 c-19 -7 -4 -23 23 -23 29 0 41 16 19 24 -18 7 -23 7 -42 -1z"/>
<path d="M235 260 c-10 -11 -15 -23 -11 -27 9 -9 58 18 64 35 6 20 -33 14 -53
-8z"/>
<path d="M433 255 c15 -14 35 -25 44 -25 29 0 -11 45 -43 48 l-29 3 28 -26z"/>
<path d="M160 246 c-19 -24 -8 -61 19 -64 13 -2 28 1 34 7 8 8 6 11 -6 11 -23
0 -33 26 -17 45 10 12 10 15 -3 15 -8 0 -20 -7 -27 -14z"/>
<path d="M519 241 c12 -21 5 -31 -21 -31 -11 0 -18 -5 -15 -12 2 -7 17 -13 33
-13 23 0 30 5 32 23 4 23 -13 52 -30 52 -5 0 -4 -8 1 -19z"/>
<path d="M292 238 c-15 -20 -24 -58 -13 -58 16 0 41 30 41 51 0 22 -13 25 -28
7z"/>
<path d="M390 233 c0 -24 26 -60 36 -50 10 10 -8 59 -23 65 -8 2 -13 -5 -13
-15z"/>
<path d="M96 225 c-15 -41 9 -85 47 -85 21 0 22 14 3 30 -8 6 -16 23 -18 37
-4 31 -23 41 -32 18z"/>
<path d="M346 233 c-8 -8 -8 -47 0 -68 5 -13 8 -14 15 -3 19 28 5 91 -15 71z"/>
<path d="M580 218 c0 -13 -7 -34 -16 -46 -19 -27 -14 -36 15 -27 33 10 43 83
14 93 -8 2 -13 -6 -13 -20z"/>
<path d="M460 166 c0 -26 -2 -28 -30 -22 -28 5 -30 4 -20 -14 15 -28 51 -36
67 -14 17 23 16 36 -2 60 -14 18 -14 18 -15 -10z"/>
<path d="M225 168 c-17 -43 25 -77 61 -48 21 19 17 28 -11 22 -19 -3 -27 1
-34 19 -8 21 -10 22 -16 7z"/>
<path d="M310 122 c0 -11 9 -27 19 -36 27 -24 61 -6 61 32 -1 23 -2 25 -11 10
-12 -22 -38 -23 -45 -3 -8 21 -24 19 -24 -3z"/>
<path d="M174 105 c-5 -13 1 -25 20 -42 29 -25 43 -28 65 -14 17 11 6 31 -16
31 -9 0 -27 10 -40 21 -21 21 -23 21 -29 4z"/>
<path d="M506 105 c-3 -9 -20 -21 -36 -27 -34 -11 -35 -31 -3 -36 28 -4 78 40
70 61 -8 21 -23 22 -31 2z"/>
<path d="M300 47 c0 -36 65 -51 94 -21 22 22 11 35 -20 24 -16 -7 -32 -7 -44
0 -25 13 -30 13 -30 -3z"/>
</g>
</svg>
